<svg width="28" height="29" viewBox="0 0 28 29" fill="none" xmlns="http://www.w3.org/2000/svg">
<path fill-rule="evenodd" clip-rule="evenodd" d="M0.779995 19.1154C2.68438 24.5829 7.88878 28.5 14 28.5C21.3629 28.5 27.4019 22.8149 27.9549 15.5883C27.2205 22.3161 18.8149 27.1856 12.7763 24.1297C12.2866 23.8851 11.8424 23.6766 11.5973 23.1597C11.2073 22.3527 11.0715 20.8473 12.0324 19.3239C14.3178 15.7061 19.7307 14.2283 23.6568 14.0468C24.9266 13.9832 26.3593 14.0017 28 14.1105C27.7824 6.55707 21.5985 0.5 14 0.5C6.27463 0.5 0 6.76561 0 14.5C0.00950054 16.1141 0.281216 17.6646 0.779995 19.1154ZM4.96926 13.4939C5.50414 8.8239 9.47584 5.18804 14.2902 5.18804C17.5276 5.18804 20.3834 6.82926 22.0702 9.32268C17.7902 8.57024 10.2012 9.13219 4.96926 13.4939Z" fill="#2D6A4F"/>
</svg>
